# xmcd
#
# Track frame offsets: 
#        150
#        26978
#        45331
#        64964
#        84366
#        111323
#        140081
#        160975
#        176885
#        199831
#        222827
#
# Disc length: 3274 seconds
#
# Revision: 1
# Processed by: cddbd v1.5.2PL0 Copyright (c) Steve Scherf et al.
# Submitted via: ExactAudioCopy v0.99pb4
#
DISCID=a40cc80b
DTITLE=Texas Blues Runners - Somebody Bring Me Some Water
DYEAR=2010
DGENRE=Blues
TTITLE0=When A Lie Becomes The Truth
TTITLE1=Wasted
TTITLE2=Love Pains
TTITLE3=Shoulda Been Out And Gone
TTITLE4=Somebody Bring Me Some Water
TTITLE5=Aww Baby
TTITLE6=Coming Down From Lovin' You
TTITLE7=Bad Reputation
TTITLE8=Chains Of Love
TTITLE9=Voodoo Woman
TTITLE10=Forever This Time
EXTD=
EXTT0=
EXTT1=
EXTT2=
EXTT3=
EXTT4=
EXTT5=
EXTT6=
EXTT7=
EXTT8=
EXTT9=
EXTT10=
PLAYORDER=
